<svg class="cloud snow-cloud" viewBox="0 0 512 512" xmlns="http://www.w3.org/2000/svg">
  <path d="M512,176c0-61.8-50.2-112-112-112c-5.3,0-10.6,0.4-15.8,1.1C354.3,24.4,307.2,0,256,0s-98.3,24.4-128.2,65.1
  c-5.2-0.8-10.5-1.1-15.8-1.1C50.2,64,0,114.2,0,176s50.2,112,112,112c13.7,0,27.1-2.5,39.7-7.3c29,25.2,65.8,39.3,104.3,39.3
  c38.5,0,75.3-14.1,104.3-39.3c12.6,4.8,26,7.3,39.7,7.3C461.8,288,512,237.8,512,176z M354.1,241.3C330.6,269.6,295.6,288,256,288
  c-39.6,0-74.6-18.4-98.1-46.7c-13,9.2-28.8,14.7-45.9,14.7c-44.2,0-80-35.8-80-80s35.8-80,80-80c10.8,0,21.1,2.2,30.4,6.1
  C163.7,60.7,206.3,32,256,32s92.3,28.7,113.5,70.1c9.4-3.9,19.7-6.1,30.5-6.1c44.2,0,80,35.8,80,80s-35.8,80-80,80
  C382.9,256,367.1,250.5,354.1,241.3z" />
  <path class="snowflake-one" d="M131.8,349.9c-1.5-5.6-7.3-8.9-12.9-7.4l-11.9,3.2c-1.1-1.5-2.2-3-3.6-4.4c-1.4-1.4-2.9-2.6-4.5-3.6l3.2-11.9
  c1.5-5.6-1.8-11.4-7.4-12.9c-5.6-1.5-11.4,1.8-12.9,7.4l-3.2,12.1c-3.8,0.3-7.5,1.2-10.9,2.9l-8.8-8.8c-4.1-4.1-10.8-4.1-14.8,0
  c-4.1,4.1-4.1,10.8,0,14.9l8.8,8.8c-1.6,3.5-2.6,7.2-2.9,11l-12,3.2c-5.6,1.5-9,7.2-7.5,12.9c1.5,5.6,7.3,8.9,12.9,7.4l11.9-3.2
  c1.1,1.6,2.2,3.1,3.7,4.5c1.4,1.4,2.9,2.6,4.4,3.6l-3.2,11.9c-1.5,5.6,1.8,11.4,7.4,12.9c5.6,1.5,11.3-1.8,12.8-7.4l3.2-12
  c3.8-0.3,7.5-1.3,11-2.9l8.8,8.8c4.1,4.1,10.7,4,14.8,0c4.1-4.1,4.1-10.7,0-14.8l-8.8-8.8c1.7-3.5,2.7-7.2,2.9-11l12.1-3.2
  C130,361.3,133.3,355.6,131.8,349.9z M88.6,371c-4.1,4.1-10.8,4.1-14.9,0c-4.1-4.1-4.1-10.8,0-14.8c4.1-4.1,10.8-4.1,14.9,0
  S92.6,366.9,88.6,371z" />
  <path class="snowflake-two" d="M304.8,437.6l-12.6-7.2c0.4-2.2,0.7-4.4,0.7-6.7c0-2.3-0.3-4.5-0.7-6.7l12.6-7.2c5.9-3.4,7.9-11,4.5-16.8
  c-3.4-5.9-10.9-7.9-16.8-4.5l-12.7,7.3c-3.4-2.9-7.2-5.2-11.5-6.7v-14.6c0-6.8-5.5-12.3-12.3-12.3s-12.3,5.5-12.3,12.3V389
  c-4.3,1.5-8.1,3.8-11.5,6.7l-12.7-7.3c-5.9-3.4-13.5-1.4-16.9,4.5c-3.4,5.9-1.4,13.4,4.5,16.8l12.5,7.2c-0.4,2.2-0.7,4.4-0.7,6.7
  c0,2.3,0.3,4.5,0.7,6.7l-12.5,7.2c-5.9,3.4-7.9,11-4.5,16.9s10.9,7.9,16.8,4.5l12.7-7.3c3.4,2.9,7.2,5.1,11.5,6.7V473
  c0,6.8,5.5,12.3,12.3,12.3s12.3-5.5,12.3-12.3v-14.6c4.3-1.5,8.2-3.8,11.5-6.7l12.7,7.3c5.9,3.4,13.4,1.4,16.8-4.5
  C312.8,448.6,310.7,441.1,304.8,437.6z M256,436c-6.8,0-12.3-5.5-12.3-12.3c0-6.8,5.5-12.3,12.3-12.3s12.3,5.5,12.3,12.3
  C268.3,430.5,262.8,436,256,436z" />
  <path class="snowflake-three" d="M474.2,396.2l-12.1-3.2c-0.3-3.8-1.2-7.5-2.9-11l8.8-8.8c4.1-4.1,4.1-10.8,0-14.9c-4.1-4.1-10.7-4.1-14.8,0
  l-8.8,8.8c-3.5-1.6-7.1-2.6-11-2.9l-3.2-12.1c-1.5-5.6-7.2-8.9-12.9-7.4c-5.6,1.5-8.9,7.3-7.4,12.9l3.2,11.9
  c-1.6,1.1-3.1,2.3-4.5,3.7c-1.4,1.4-2.5,2.9-3.6,4.5l-11.9-3.2c-5.6-1.5-11.4,1.9-12.9,7.4c-1.5,5.6,1.9,11.4,7.4,12.9l12,3.2
  c0.3,3.8,1.3,7.5,3,11l-8.8,8.8c-4.1,4.1-4.1,10.7,0,14.8c4.1,4.1,10.7,4.1,14.8,0l8.8-8.8c3.5,1.7,7.2,2.7,11,3l3.2,12
  c1.5,5.6,7.2,8.9,12.9,7.4c5.6-1.5,9-7.2,7.5-12.9l-3.2-11.9c1.5-1.1,3-2.2,4.5-3.6c1.4-1.4,2.5-2.9,3.6-4.5l11.9,3.2
  c5.6,1.5,11.4-1.9,12.9-7.4C483.1,403.5,479.8,397.8,474.2,396.2z M438.3,402.9c-4.1,4.1-10.8,4.1-14.9,0c-4.1-4.1-4.1-10.7,0-14.9
  c4.1-4.1,10.8-4.1,14.9,0C442.4,392.2,442.4,398.9,438.3,402.9z" />
</svg>