<svg class="cloud rain-cloud" viewBox="0 0 512 512" xmlns="http://www.w3.org/2000/svg">
  <path class="raindrop-one" d="M96,384c0,17.7,14.3,32,32,32s32-14.3,32-32s-32-64-32-64S96,366.3,96,384z" />
  <path class="raindrop-two" d="M225,480c0,17.7,14.3,32,32,32s32-14.3,32-32s-32-64-32-64S225,462.3,225,480z" />
  <path class="raindrop-three" d="M352,448c0,17.7,14.3,32,32,32s32-14.3,32-32s-32-64-32-64S352,430.3,352,448z" />
  <path d="M400,64c-5.3,0-10.6,0.4-15.8,1.1C354.3,24.4,307.2,0,256,0s-98.3,24.4-128.2,65.1c-5.2-0.8-10.5-1.1-15.8-1.1
  C50.2,64,0,114.2,0,176s50.2,112,112,112c13.7,0,27.1-2.5,39.7-7.3c29,25.2,65.8,39.3,104.3,39.3c38.5,0,75.3-14.1,104.3-39.3
  c12.6,4.8,26,7.3,39.7,7.3c61.8,0,112-50.2,112-112S461.8,64,400,64z M400,256c-17.1,0-32.9-5.5-45.9-14.7
  C330.6,269.6,295.6,288,256,288c-39.6,0-74.6-18.4-98.1-46.7c-13,9.2-28.8,14.7-45.9,14.7c-44.2,0-80-35.8-80-80s35.8-80,80-80
  c10.8,0,21.1,2.2,30.4,6.1C163.7,60.7,206.3,32,256,32s92.3,28.7,113.5,70.1c9.4-3.9,19.7-6.1,30.5-6.1c44.2,0,80,35.8,80,80
  S444.2,256,400,256z" />
</svg>