<svg xmlns="http://www.w3.org/2000/svg" width="411.652" height="227.401" viewBox="-10 -10 431.652 247.401">
  <g stroke-linecap="round" fill-rule="evenodd" stroke="#b4637a" stroke-width="2" fill="#ea9d34">
    <path d="M 101 104.001 L 103.2 104.001 A 789.817 789.817 0 0 0 138.14 81.76 A 676.971 676.971 0 0 0 150.8 73.001 A 966.46 966.46 0 0 1 155.15 65.157 Q 161.45 53.926 166.4 45.901 A 191.965 191.965 0 0 1 174.711 33.578 A 248.385 248.385 0 0 1 182.4 23.601 Q 193.793 9.144 205.937 3.543 A 37.044 37.044 0 0 1 221.6 0.001 Q 226.23 0.001 226.89 3.529 A 6.918 6.918 0 0 1 227 4.801 A 19.721 19.721 0 0 1 225.33 12.269 Q 221.338 21.945 207.8 35.201 Q 188.6 54.001 156.8 75.601 Q 147.559 93.313 142.765 101.759 A 251.282 251.282 0 0 1 142.4 102.401 Q 170.4 100.201 182.8 95.601 L 183.4 95.601 A 0.812 0.812 0 0 1 183.778 95.683 Q 184.2 95.901 184.2 96.701 Q 184.2 97.563 183.339 98.979 A 15.298 15.298 0 0 1 182.8 99.801 Q 169.837 103.776 147.016 106.258 A 455.401 455.401 0 0 1 139.6 107.001 A 215.738 215.738 0 0 1 132.258 118.807 Q 128.414 124.539 124.663 129.172 A 94.973 94.973 0 0 1 118.7 135.901 Q 108.6 146.201 98.4 146.201 Q 84.665 146.201 72.192 133.434 A 74.261 74.261 0 0 1 67.4 128.001 Q 45.503 139.026 27.475 146.065 A 287.509 287.509 0 0 1 16.8 150.001 A 18.816 18.816 0 0 1 13.359 150.781 A 25.913 25.913 0 0 1 9.9 151.001 Q 6 151.001 6 148.001 A 3.207 3.207 0 0 1 6.641 146.096 Q 7.013 145.578 7.6 145.101 Q 9.149 143.842 11.636 143.802 A 10.211 10.211 0 0 1 11.8 143.801 Q 26.64 143.801 59.717 127.628 A 447.812 447.812 0 0 0 65 125.001 Q 60.2 118.601 52.6 107.201 Q 0 102.001 0 85.201 A 6.541 6.541 0 0 1 2.285 80.204 A 10.687 10.687 0 0 1 3.9 79.001 Q 7.8 76.601 15.8 76.601 A 35.543 35.543 0 0 1 33.262 81.462 Q 44.293 87.618 55.263 101.57 A 130.469 130.469 0 0 1 55.6 102.001 A 381.315 381.315 0 0 0 75.537 103.436 Q 86.01 103.93 97.65 103.992 A 631.592 631.592 0 0 0 101 104.001 Z M 216 4.801 A 23.762 23.762 0 0 0 204.321 8.075 Q 196.799 12.28 189.219 21.885 A 94.001 94.001 0 0 0 188.2 23.201 Q 179.812 34.482 170.273 50.992 A 521.395 521.395 0 0 0 162.8 64.401 A 496.366 496.366 0 0 0 180.294 50.915 Q 193.7 40.063 203.2 30.501 Q 217.291 16.316 218.319 8.063 A 10.213 10.213 0 0 0 218.4 6.801 Q 218.4 4.945 216.334 4.811 A 5.166 5.166 0 0 0 216 4.801 Z M 103.2 109.001 Q 88 117.601 73.2 125.201 Q 83.571 138.048 92.504 140.952 A 16.432 16.432 0 0 0 97.6 141.801 A 16.952 16.952 0 0 0 105.52 139.736 Q 108.131 138.371 110.731 136.103 A 40.525 40.525 0 0 0 113.9 133.001 A 92.105 92.105 0 0 0 119.129 126.739 Q 125.063 119.013 131.8 107.601 Q 119.6 108.601 103.2 109.001 Z M 9.6 84.401 A 8.104 8.104 0 0 0 13.002 90.623 Q 21.059 97.344 48.2 101.001 A 83.32 83.32 0 0 0 40.143 91.658 Q 29.451 81.112 18.665 80.273 A 24.04 24.04 0 0 0 16.8 80.201 A 18.449 18.449 0 0 0 14.353 80.348 Q 9.6 80.988 9.6 84.401 Z M 145.4 83.201 Q 134.6 90.401 111.8 104.001 Q 126.625 103.616 133.851 103.045 A 126.229 126.229 0 0 0 134.4 103.001 Q 137.309 97.947 142.212 89.026 A 2151.673 2151.673 0 0 0 145.4 83.201 Z M 94.6 109.001 L 93.8 109.001 Q 76.4 109.001 60.2 107.801 Q 67.8 118.401 70.8 122.201 Q 83.2 115.601 94.6 109.001 Z" vectorEffect="non-scaling-stroke" />
    <path d="M 241 115.001 L 245.4 111.401 A 6.86 6.86 0 0 1 246.297 110.852 Q 246.795 110.602 247.264 110.49 A 3.18 3.18 0 0 1 248 110.401 A 1.728 1.728 0 0 1 248.475 110.46 Q 249.007 110.613 249.149 111.156 A 1.768 1.768 0 0 1 249.2 111.601 L 249.2 112.201 A 433.331 433.331 0 0 1 229.684 127.607 A 366.493 366.493 0 0 1 218.2 135.801 A 163.786 163.786 0 0 1 212.827 139.743 Q 204.253 145.748 199.455 147.044 A 9.149 9.149 0 0 1 197.1 147.401 A 10.651 10.651 0 0 1 194.947 147.203 Q 191.683 146.526 191.262 143.536 A 6.716 6.716 0 0 1 191.2 142.601 A 11.863 11.863 0 0 1 191.673 139.557 Q 192.959 134.814 197.737 126.762 A 144.188 144.188 0 0 1 198.8 125.001 A 748.283 748.283 0 0 0 200.581 122.08 Q 206.4 112.488 206.4 111.701 A 1.474 1.474 0 0 0 206.364 111.361 Q 206.231 110.801 205.6 110.801 Q 203.367 110.801 193.243 119.282 A 299.073 299.073 0 0 0 189.7 122.301 A 611.02 611.02 0 0 0 177.956 132.708 Q 171.713 138.394 166.4 143.601 Q 162.6 147.001 161.1 147.001 A 1.413 1.413 0 0 1 160.342 146.807 Q 159.781 146.459 159.644 145.49 A 4.96 4.96 0 0 1 159.6 144.801 A 5.022 5.022 0 0 1 159.867 143.268 Q 160.307 141.903 161.473 140.202 A 23.91 23.91 0 0 1 162.2 139.201 L 232 32.801 A 8.339 8.339 0 0 1 233.69 30.865 A 6.426 6.426 0 0 1 237.9 29.401 Q 240.511 29.401 241.279 30.595 A 2.18 2.18 0 0 1 241.6 31.801 Q 241.6 33.201 240.5 34.801 A 103.059 103.059 0 0 1 240.049 35.449 Q 237.991 38.386 228.359 51.983 A 30947.363 30947.363 0 0 1 227 53.901 A 2404.696 2404.696 0 0 0 222.719 59.96 Q 214.244 72.001 212.7 74.601 Q 210.8 77.801 195.3 101.001 Q 181.757 121.271 179.36 124.823 A 87.298 87.298 0 0 1 178.9 125.501 A 8.757 8.757 0 0 0 178.506 126.119 Q 178 127.001 178 127.601 A 1.33 1.33 0 0 0 178.031 127.903 Q 178.128 128.314 178.522 128.386 A 1.002 1.002 0 0 0 178.7 128.401 A 3.84 3.84 0 0 0 178.982 128.391 Q 179.411 128.359 179.576 128.222 A 0.345 0.345 0 0 0 179.6 128.201 Q 183.9 123.901 190.322 118.653 A 273.714 273.714 0 0 1 197.1 113.301 A 122.484 122.484 0 0 1 201.02 110.412 Q 207.241 106.03 210.685 105.07 A 6.478 6.478 0 0 1 212.4 104.801 Q 214 104.801 215.2 105.901 Q 216.111 106.736 216.33 108.377 A 8.496 8.496 0 0 1 216.4 109.501 A 4.203 4.203 0 0 1 216.078 110.871 Q 214.908 114.007 209.484 121.834 A 237.482 237.482 0 0 1 208.6 123.101 A 153.308 153.308 0 0 0 205.949 126.989 Q 202.099 132.844 201.128 135.82 A 5.623 5.623 0 0 0 200.8 137.501 A 7.761 7.761 0 0 0 200.874 138.622 Q 201.072 139.973 201.804 140.486 A 1.861 1.861 0 0 0 202.9 140.801 A 3.683 3.683 0 0 0 204.013 140.57 Q 206.614 139.694 212.946 135.502 A 169.135 169.135 0 0 0 213.4 135.201 A 389.318 389.318 0 0 0 232.891 121.356 A 331.838 331.838 0 0 0 241 115.001 Z" vectorEffect="non-scaling-stroke" />
    <path d="M 278.8 115.001 L 283.2 111.401 Q 284.449 110.62 285.272 110.449 A 2.111 2.111 0 0 1 285.7 110.401 Q 286.483 110.401 286.585 111.309 A 2.625 2.625 0 0 1 286.6 111.601 L 286.6 112.201 A 0.041 0.041 0 0 1 286.652 112.238 Q 286.652 112.703 278.523 118.984 A 707.322 707.322 0 0 1 275.9 121.001 Q 264.4 129.801 251.3 138.601 A 206.296 206.296 0 0 1 246.729 141.591 Q 237.563 147.401 234.8 147.401 A 10.238 10.238 0 0 1 232.647 147.195 Q 229.504 146.516 229.07 143.594 A 6.764 6.764 0 0 1 229 142.601 A 12.29 12.29 0 0 1 229.547 139.324 Q 231.037 134.094 236.585 124.685 A 202.624 202.624 0 0 1 239 120.701 Q 246.728 108.259 251.231 105.432 A 4.591 4.591 0 0 1 253.6 104.601 A 6.521 6.521 0 0 1 254.84 104.708 Q 256.834 105.096 256.987 106.892 A 3.632 3.632 0 0 1 257 107.201 A 3.951 3.951 0 0 1 256.622 108.624 Q 255.246 111.89 248.855 120.061 A 251.097 251.097 0 0 1 247.8 121.401 Q 239.524 131.836 238.693 136.93 A 6.666 6.666 0 0 0 238.6 138.001 A 5.487 5.487 0 0 0 238.685 139.014 Q 239.023 140.801 240.7 140.801 A 3.683 3.683 0 0 0 241.813 140.57 Q 244.414 139.694 250.746 135.502 A 169.135 169.135 0 0 0 251.2 135.201 A 389.318 389.318 0 0 0 270.691 121.356 A 331.838 331.838 0 0 0 278.8 115.001 Z M 268 84.566 A 4.845 4.845 0 0 0 266.7 84.401 Q 265.212 84.401 262.926 86.732 A 26.307 26.307 0 0 0 261.6 88.201 A 40.972 40.972 0 0 0 261.08 88.83 Q 259.132 91.239 258.6 92.719 A 2.954 2.954 0 0 0 258.4 93.701 Q 258.4 95.401 259.4 96.701 Q 260.4 98.001 262.6 98.001 Q 264.284 98.001 266.438 96.008 A 19.478 19.478 0 0 0 267.8 94.601 Q 270.8 91.201 270.8 89.001 A 8.107 8.107 0 0 0 270.784 88.483 Q 270.738 87.76 270.558 87.158 A 3.922 3.922 0 0 0 269.7 85.601 A 3.546 3.546 0 0 0 268 84.566 Z" vectorEffect="non-scaling-stroke" />
    <path d="M 346 115.001 L 350.4 111.401 Q 351.746 110.559 352.668 110.426 A 2.321 2.321 0 0 1 353 110.401 Q 353.794 110.401 353.957 111.03 A 1.473 1.473 0 0 1 354 111.401 L 353.8 112.201 A 0.074 0.074 0 0 1 353.875 112.232 Q 354.102 112.73 343.2 121.001 Q 331.6 129.801 321.8 136.601 A 131.79 131.79 0 0 1 315.449 140.71 Q 308.416 145.01 298.172 150.399 A 575.709 575.709 0 0 1 291.6 153.801 L 277.4 171.201 A 15.491 15.491 0 0 1 280.117 178.786 A 19.536 19.536 0 0 1 280.2 180.601 Q 280.2 189.801 272.4 201.101 Q 264.6 212.401 254.9 219.901 Q 247.214 225.843 241.726 227.077 A 12.442 12.442 0 0 1 239 227.401 A 4.797 4.797 0 0 1 236.128 226.441 A 6.27 6.27 0 0 1 235.7 226.101 Q 234.2 224.801 234.2 222.501 A 6.892 6.892 0 0 1 234.372 221.071 Q 234.829 218.943 236.5 215.601 A 52.154 52.154 0 0 1 238.534 211.94 Q 240.488 208.713 243.3 204.901 Q 247.8 198.801 251.8 193.901 A 784.821 784.821 0 0 1 253.938 191.294 Q 257.123 187.426 261.388 182.332 A 2246.884 2246.884 0 0 1 262 181.601 Q 268.145 174.267 271.146 170.665 A 1649.934 1649.934 0 0 0 271.2 170.601 Q 267.6 167.401 263.1 166.601 A 20.239 20.239 0 0 1 261.599 166.28 Q 258.6 165.507 258.6 164.201 A 21.716 21.716 0 0 1 258.815 163.65 Q 259.256 162.563 259.5 162.401 Q 259.8 162.201 261 162.101 Q 262.025 162.015 266.844 160.762 A 344.361 344.361 0 0 0 268.6 160.301 A 78.435 78.435 0 0 0 273.738 158.73 Q 276.447 157.807 279.486 156.595 A 166.367 166.367 0 0 0 283.8 154.801 Q 308.137 123.809 310.693 119.659 A 5.749 5.749 0 0 0 310.9 119.301 Q 312.4 116.401 312.4 115.801 A 0.63 0.63 0 0 0 312.344 115.524 Q 312.188 115.201 311.6 115.201 Q 310.947 115.201 310.162 116.132 A 7.389 7.389 0 0 0 309.8 116.601 A 1.307 1.307 0 0 0 309.63 116.718 Q 308.909 117.27 305.666 120.233 A 597.702 597.702 0 0 0 304.5 121.301 A 209.53 209.53 0 0 1 297.337 127.595 A 181.288 181.288 0 0 1 294.9 129.601 A 71.274 71.274 0 0 1 289.138 133.781 A 91.19 91.19 0 0 1 284 136.901 A 37.773 37.773 0 0 1 280.389 138.708 Q 276.459 140.401 273.4 140.401 A 8.912 8.912 0 0 1 271.822 140.274 Q 269 139.763 269 137.201 A 16.585 16.585 0 0 1 269.926 132.455 Q 271.46 127.85 275.523 121.785 A 101.516 101.516 0 0 1 279.1 116.801 A 152.541 152.541 0 0 1 282.584 112.383 Q 289.297 104.215 292.123 103.821 A 2.003 2.003 0 0 1 292.4 103.801 Q 294.45 103.801 295.264 104.455 A 1.396 1.396 0 0 1 295.8 105.601 A 1.118 1.118 0 0 1 295.658 106.013 Q 294.663 108.026 286.7 118.001 A 189.587 189.587 0 0 0 283.607 121.973 Q 277.6 129.926 277.6 132.201 A 6.52 6.52 0 0 0 277.663 133.152 Q 277.938 135.001 279.4 135.001 Q 282.52 135.001 295.784 124.031 A 360.691 360.691 0 0 0 300.1 120.401 A 301.583 301.583 0 0 1 306.052 115.439 Q 317.95 105.801 321.2 105.801 A 2.557 2.557 0 0 1 322.501 106.17 Q 322.879 106.39 323.246 106.741 A 5.497 5.497 0 0 1 323.5 107.001 A 4.577 4.577 0 0 1 324.207 107.999 A 3.462 3.462 0 0 1 324.6 109.601 A 6.841 6.841 0 0 1 323.629 112.248 Q 319.313 120.426 295.8 149.001 Q 322.8 134.001 346 115.001 Z M 274.6 179.601 Q 274.6 177.601 274 175.401 Q 249.422 206.165 245.391 216.242 A 9.109 9.109 0 0 0 244.6 219.401 A 0.864 0.864 0 0 0 244.63 219.638 Q 244.734 220.001 245.2 220.001 A 5.533 5.533 0 0 0 247.192 219.562 Q 250.092 218.422 254.606 214.321 A 73.137 73.137 0 0 0 255.6 213.401 Q 262.6 206.801 268.6 197.001 A 54.111 54.111 0 0 0 271.764 191.09 Q 273.182 187.958 273.891 185.086 A 22.894 22.894 0 0 0 274.6 179.601 Z M 267.6 164.001 L 273.6 167.601 L 276.2 164.201 A 239.964 239.964 0 0 0 277.485 162.663 Q 279.085 160.73 279.827 159.727 A 13.585 13.585 0 0 0 280.2 159.201 Q 274.4 161.801 271 162.701 A 50.42 50.42 0 0 0 270.021 162.97 Q 267.6 163.663 267.6 164.001 Z" vectorEffect="non-scaling-stroke" />
    <path d="M 403.8 115.001 L 408.2 111.401 A 8.11 8.11 0 0 1 408.956 110.917 Q 409.761 110.468 410.41 110.409 A 2.122 2.122 0 0 1 410.6 110.401 Q 411.6 110.401 411.6 111.601 L 411.6 112.201 A 0.041 0.041 0 0 1 411.652 112.238 Q 411.652 112.703 403.523 118.984 A 707.322 707.322 0 0 1 400.9 121.001 Q 389.4 129.801 376.3 138.601 A 206.296 206.296 0 0 1 371.729 141.591 Q 362.563 147.401 359.8 147.401 A 9.423 9.423 0 0 1 357.611 147.169 Q 354.669 146.464 354.124 143.609 A 7.52 7.52 0 0 1 354 142.201 A 8.365 8.365 0 0 1 354.283 140.15 Q 354.794 138.143 356.224 135.565 A 36.596 36.596 0 0 1 356.9 134.401 A 201.212 201.212 0 0 0 357.893 132.741 Q 359.838 129.451 360 128.801 Q 360.174 128.105 359.743 128.014 A 0.695 0.695 0 0 0 359.6 128.001 A 0.978 0.978 0 0 0 359.235 128.083 Q 358.75 128.281 358.049 128.955 A 10.574 10.574 0 0 0 357.9 129.101 A 8.242 8.242 0 0 1 357.159 129.713 Q 355.201 131.206 348.795 135.457 A 912.513 912.513 0 0 1 345.7 137.501 A 123.336 123.336 0 0 1 341.78 139.981 Q 333.813 144.801 330.4 144.801 Q 327.918 144.801 327.636 141.972 A 7.791 7.791 0 0 1 327.6 141.201 A 5.734 5.734 0 0 1 328.062 139.268 Q 329.743 134.897 337.537 124.305 A 301.963 301.963 0 0 1 338.8 122.601 A 147.915 147.915 0 0 1 342.768 117.503 Q 348.632 110.329 352.21 108.352 A 5.101 5.101 0 0 1 354.6 107.601 Q 355.551 107.601 356.412 108.415 A 4.436 4.436 0 0 1 356.5 108.501 Q 357.345 109.346 357.397 109.838 A 0.6 0.6 0 0 1 357.4 109.901 A 0.888 0.888 0 0 1 357.239 110.202 Q 356.277 111.632 349.56 119.374 A 1229.208 1229.208 0 0 1 347.1 122.201 Q 336.946 133.833 336.802 137.302 A 2.367 2.367 0 0 0 336.8 137.401 Q 336.8 138.035 337.304 138.166 A 1.179 1.179 0 0 0 337.6 138.201 A 5.989 5.989 0 0 0 339.678 137.715 Q 344.114 135.989 353.839 128.131 A 217.583 217.583 0 0 0 354 128.001 A 420.187 420.187 0 0 0 359.844 123.188 Q 365.66 118.303 369.349 114.758 A 76.686 76.686 0 0 0 371.9 112.201 Q 377.2 106.601 380.2 106.601 A 5.035 5.035 0 0 1 381.332 106.716 Q 382.884 107.076 383.147 108.553 A 3.704 3.704 0 0 1 383.2 109.201 A 4.637 4.637 0 0 1 382.777 111.101 Q 382.506 111.71 382.06 112.319 A 8.22 8.22 0 0 1 382 112.401 Q 381.013 113.716 378.606 116.723 A 682.823 682.823 0 0 1 377.5 118.101 Q 374.2 122.201 371.4 125.801 A 163.092 163.092 0 0 0 368.749 129.287 Q 363.786 136.018 363.607 138.148 A 1.828 1.828 0 0 0 363.6 138.301 A 4.35 4.35 0 0 0 363.69 139.229 Q 363.984 140.567 365.235 140.766 A 2.968 2.968 0 0 0 365.7 140.801 A 3.608 3.608 0 0 0 366.805 140.57 Q 369.375 139.694 375.557 135.502 A 160.959 160.959 0 0 0 376 135.201 Q 391.2 125.201 403.8 115.001 Z" vectorEffect="non-scaling-stroke" />
  </g>
</svg>