<svg width="466" height="468" viewBox="0 0 466 468" fill="none" xmlns="http://www.w3.org/2000/svg">
<path d="M167.76 380L168.1 380.05" stroke="black" stroke-linejoin="round"/>
<path d="M177 381.19L176.49 381.14C175.19 381 173.88 380.86 172.57 380.69C174.06 380.88 175.53 381.05 177 381.19Z" fill="black" stroke="black" stroke-linejoin="round"/>
<path d="M256.63 89.2698L256.84 89.3498L257.29 89.4998L256.63 89.2698Z" fill="black" stroke="black" stroke-linejoin="round"/>
<path d="M173.87 335.67V405.52C173.87 418.95 179.205 431.831 188.702 441.328C198.199 450.825 211.079 456.16 224.51 456.16C237.94 456.16 250.821 450.825 260.318 441.328C269.814 431.831 275.15 418.95 275.15 405.52V337.42L173.87 335.67Z" fill="black" stroke="black" stroke-linecap="round" stroke-linejoin="round"/>
<path d="M264.93 386.57C264.93 391.44 262.2 395.39 258.83 395.39C255.46 395.39 252.74 391.44 252.74 386.57C252.74 381.7 255.47 377.76 258.83 377.76C262.19 377.76 264.93 381.7 264.93 386.57Z" fill="#7D7D7D" stroke="black" stroke-linejoin="round"/>
<path d="M264.93 416.72C264.93 421.59 262.2 425.54 258.83 425.54C255.46 425.54 252.74 421.54 252.74 416.72C252.74 411.9 255.47 407.91 258.83 407.91C262.19 407.91 264.93 411.86 264.93 416.72Z" fill="#7D7D7D" stroke="black" stroke-linejoin="round"/>
<path d="M277.2 98.7099C277.2 98.7099 276.49 98.2499 275.2 97.5199C274.37 97.0499 273.29 96.4599 271.98 95.7899H271.89L270.6 95.1399L270.44 95.0599L269.06 94.3999L268.81 94.2799L267.34 93.5999L267.04 93.4599L265.44 92.7499L265.13 92.6199L263.38 91.8799L262.61 91.5699L261.18 90.9999L260.27 90.6499L258.95 90.1499L259.6 90.3899L259.25 90.2499L258.05 89.8199L256.84 89.3899L255.52 88.9299L254.19 88.4899L254.84 88.6999L254.1 88.4499C253.01 88.0899 251.88 87.7399 250.72 87.3999L249.72 87.1099H249.66H249.77H249.64C248.83 86.8699 248 86.6399 247.16 86.4199L246 85.9999L243.21 85.3199L242.32 85.0999L243.27 85.0199L242.66 84.8899C241.57 84.6499 240.48 84.4199 239.36 84.1999H239.23C238.05 83.9799 236.84 83.7699 235.62 83.5599C221.195 81.1606 206.464 81.279 192.08 83.9099C142.58 93.0099 115.27 140.8 111.29 160.72C107.31 180.64 109 219.9 109 233C109 246.1 104.45 267.13 111.85 287.62C119.25 308.11 136.31 345.62 140.85 355.32C145.39 365.02 150.52 376.94 167.59 379.79C167.641 379.871 167.698 379.947 167.76 380.02L168.1 380.07C170.92 380.51 173.72 380.86 176.49 381.15L177.01 381.2C178.62 381.36 180.22 381.49 181.8 381.6C183.38 381.7 184.93 381.78 186.46 381.84C195.91 382.16 204.3 381.48 210.05 379.79C219.73 376.94 286.3 343.37 295.97 333.13C302.97 325.68 307.33 292.95 309.16 275.66C306.545 276.661 303.769 277.176 300.97 277.18C283.08 277.18 268.58 256.18 268.58 230.33C268.58 204.48 283.08 183.49 300.97 183.49C312.18 183.49 322.06 191.73 327.87 204.25C328.663 198.314 329.031 192.328 328.97 186.34C328.41 149.35 297.69 111.23 277.2 98.7099Z" fill="#7D7D7D" stroke="black" stroke-linejoin="round"/>
<path d="M261.8 91.19L261.23 90.98L261.91 91.24L261.8 91.19Z" fill="black" stroke="black" stroke-linejoin="round"/>
<path d="M258.11 89.7999L259.25 90.2098L258.72 90.0198L258.31 89.8699L257.31 89.5298L256.79 89.3398L257.31 89.5198H257.25L258.01 89.7999H258.11Z" fill="black" stroke="black" stroke-linejoin="round"/>
<path d="M261.16 91H261.21" stroke="black" stroke-linejoin="round"/>
<path d="M254.84 88.6599L254.1 88.4099" stroke="black" stroke-linejoin="round"/>
<path d="M260.49 90.6898L260.25 90.5998L261.66 91.1398L261.05 90.9098L260.6 90.7298L259.72 90.3898L259.41 90.2698L259.71 90.3898H259.6L260.27 90.6498L260.49 90.6898Z" fill="black" stroke="black" stroke-linejoin="round"/>
<path d="M255.52 88.8899L256.69 89.2899L256.25 89.1399L255.86 89.0099L254.86 88.6599L255.52 88.8899Z" fill="black" stroke="black" stroke-linejoin="round"/>
<path d="M235.1 83.49L235.58 83.57" stroke="black" stroke-linejoin="round"/>
<path d="M215.038 248.705C231.337 246.086 242.426 230.749 239.807 214.451C237.188 198.152 221.851 187.063 205.553 189.682C189.254 192.302 178.165 207.638 180.784 223.936C183.404 240.235 198.74 251.324 215.038 248.705Z" fill="black" stroke="black" stroke-linejoin="round"/>
<path d="M210.3 234.17C218.573 234.17 225.28 227.463 225.28 219.19C225.28 210.917 218.573 204.21 210.3 204.21C202.027 204.21 195.32 210.917 195.32 219.19C195.32 227.463 202.027 234.17 210.3 234.17Z" fill="#6B6B6B" stroke="black" stroke-linejoin="round"/>
<path d="M210.3 230.43C216.507 230.43 221.54 225.398 221.54 219.19C221.54 212.982 216.507 207.95 210.3 207.95C204.092 207.95 199.06 212.982 199.06 219.19C199.06 225.398 204.092 230.43 210.3 230.43Z" fill="black" stroke="black" stroke-linejoin="round"/>
<path d="M210.3 225.75C213.923 225.75 216.86 222.813 216.86 219.19C216.86 215.567 213.923 212.63 210.3 212.63C206.677 212.63 203.74 215.567 203.74 219.19C203.74 222.813 206.677 225.75 210.3 225.75Z" fill="black" stroke="black" stroke-linejoin="round"/>
<path d="M133.53 249.08C146.066 249.08 156.23 235.698 156.23 219.19C156.23 202.682 146.066 189.3 133.53 189.3C120.993 189.3 110.83 202.682 110.83 219.19C110.83 235.698 120.993 249.08 133.53 249.08Z" fill="black" stroke="black" stroke-linejoin="round"/>
<path d="M130.55 234.17C136.835 234.17 141.93 227.463 141.93 219.19C141.93 210.917 136.835 204.21 130.55 204.21C124.265 204.21 119.17 210.917 119.17 219.19C119.17 227.463 124.265 234.17 130.55 234.17Z" fill="#6B6B6B" stroke="black" stroke-linejoin="round"/>
<path d="M130.55 230.43C135.266 230.43 139.09 225.398 139.09 219.19C139.09 212.982 135.266 207.95 130.55 207.95C125.833 207.95 122.01 212.982 122.01 219.19C122.01 225.398 125.833 230.43 130.55 230.43Z" fill="black" stroke="black" stroke-linejoin="round"/>
<path d="M135.53 219.19C135.53 215.57 133.3 212.63 130.53 212.63C127.76 212.63 125.53 215.57 125.53 219.19C125.53 222.81 127.76 225.74 130.53 225.74C133.3 225.74 135.53 222.81 135.53 219.19Z" fill="black" stroke="black" stroke-linejoin="round"/>
<path d="M161.08 262.61C158.429 260.496 155.224 259.194 151.85 258.86C147.34 258.64 143.93 262.19 142.7 266.18C140.39 273.7 136.34 279.48 139.81 282.37C143.28 285.26 158.23 287 158.23 287L158.16 286.82C161.78 287.11 174.51 287.95 177.73 285.66C181.48 283 169.13 268.51 161.08 262.61Z" fill="black" stroke="black" stroke-linejoin="round"/>
<path d="M253.46 246.94C229.7 258.23 229.7 287.76 229.7 287.76L207.53 298.38L203.7 308.38H203.57L203.65 308.51L203.57 308.71H203.76L205.25 311.26L201.83 313.49C203.51 313.81 205.26 314.1 207.05 314.36L207.53 315.18C207.53 315.18 235.53 318.79 253.46 316.3C253.46 316.3 270.09 311.39 275.46 302.57C280.83 293.75 288.4 266.86 288.4 266.86C276.34 231.54 253.46 246.94 253.46 246.94Z" fill="black" stroke="black" stroke-linejoin="round"/>
<path d="M123.68 317C127.635 316.68 131.562 316.075 135.43 315.19L135.68 314.37C136.62 314.11 137.53 313.82 138.41 313.5L136.62 311.27L137.4 308.72H137.5V308.52V308.39H137.44L135.44 298.39L123.8 287.76C123.8 287.76 123.8 258.23 111.35 246.94C110.51 245.931 109.493 245.084 108.35 244.44C107.42 256.8 106.35 272.36 111.81 287.61C114.73 295.66 119.13 306.35 123.68 317Z" fill="black" stroke="black" stroke-linejoin="round"/>
<path d="M300.88 277.17C318.768 277.17 333.27 256.195 333.27 230.32C333.27 204.445 318.768 183.47 300.88 183.47C282.991 183.47 268.49 204.445 268.49 230.32C268.49 256.195 282.991 277.17 300.88 277.17Z" fill="black" stroke="black" stroke-linejoin="round"/>
<path d="M300.88 262.93C313.334 262.93 323.43 248.33 323.43 230.32C323.43 212.31 313.334 197.71 300.88 197.71C288.426 197.71 278.33 212.31 278.33 230.32C278.33 248.33 288.426 262.93 300.88 262.93Z" fill="#7A7A7A" stroke="black" stroke-linejoin="round"/>
<path d="M300.88 250.42C308.551 250.42 314.77 241.421 314.77 230.32C314.77 219.219 308.551 210.22 300.88 210.22C293.209 210.22 286.99 219.219 286.99 230.32C286.99 241.421 293.209 250.42 300.88 250.42Z" fill="#7A7A7A" stroke="black" stroke-linejoin="round"/>
<path d="M132.89 309.43H145.6V322.05C145.6 323.037 145.208 323.983 144.51 324.68C143.812 325.378 142.866 325.77 141.88 325.77H136.62C135.633 325.77 134.687 325.378 133.989 324.68C133.292 323.983 132.9 323.037 132.9 322.05V309.43H132.89Z" fill="white" stroke="black" stroke-linejoin="round"/>
<path d="M145.58 309.43H158.29V322.05C158.29 323.037 157.898 323.983 157.2 324.68C156.502 325.378 155.556 325.77 154.57 325.77H149.3C148.313 325.77 147.367 325.378 146.669 324.68C145.972 323.983 145.58 323.037 145.58 322.05V309.43Z" fill="white" stroke="black" stroke-linejoin="round"/>
<path d="M158.27 309.43H171V322.05C171 323.037 170.608 323.983 169.91 324.68C169.212 325.378 168.266 325.77 167.28 325.77H162C161.013 325.77 160.067 325.378 159.369 324.68C158.671 323.983 158.28 323.037 158.28 322.05V309.43H158.27Z" fill="white" stroke="black" stroke-linejoin="round"/>
<path d="M171 309.43H183.71V322.05C183.71 323.037 183.318 323.983 182.62 324.68C181.923 325.378 180.977 325.77 179.99 325.77H174.73C173.743 325.77 172.797 325.378 172.1 324.68C171.402 323.983 171.01 323.037 171.01 322.05V309.43H171Z" fill="white" stroke="black" stroke-linejoin="round"/>
<path d="M183.66 309.43H196.37V322.05C196.37 323.037 195.978 323.983 195.28 324.68C194.582 325.378 193.636 325.77 192.65 325.77H187.39C186.403 325.77 185.457 325.378 184.759 324.68C184.062 323.983 183.67 323.037 183.67 322.05V309.43H183.66Z" fill="white" stroke="black" stroke-linejoin="round"/>
<path d="M196.35 309.43H209.06V322.05C209.06 323.037 208.668 323.983 207.97 324.68C207.272 325.378 206.326 325.77 205.34 325.77H200.08C199.093 325.77 198.147 325.378 197.449 324.68C196.752 323.983 196.36 323.037 196.36 322.05V309.43H196.35Z" fill="white" stroke="black" stroke-linejoin="round"/>
<path d="M136.61 293.4H141.87C142.856 293.4 143.802 293.792 144.5 294.489C145.198 295.187 145.59 296.133 145.59 297.12V309.74H132.89V297.13C132.888 296.641 132.984 296.156 133.17 295.703C133.356 295.251 133.63 294.84 133.976 294.493C134.321 294.147 134.732 293.872 135.184 293.684C135.636 293.496 136.12 293.4 136.61 293.4Z" fill="white" stroke="black" stroke-linejoin="round"/>
<path d="M149.3 293.4H154.56C155.546 293.4 156.492 293.792 157.19 294.489C157.888 295.187 158.28 296.133 158.28 297.12V309.74H145.58V297.13C145.578 296.641 145.674 296.156 145.86 295.703C146.046 295.251 146.32 294.84 146.666 294.493C147.011 294.147 147.422 293.872 147.874 293.684C148.326 293.496 148.81 293.4 149.3 293.4Z" fill="white" stroke="black" stroke-linejoin="round"/>
<path d="M162 293.4H167.26C168.246 293.4 169.192 293.792 169.89 294.489C170.588 295.187 170.98 296.133 170.98 297.12V309.74H158.27V297.13C158.268 296.64 158.364 296.154 158.551 295.701C158.738 295.248 159.012 294.836 159.359 294.489C159.706 294.143 160.117 293.868 160.571 293.681C161.024 293.494 161.509 293.399 162 293.4Z" fill="white" stroke="black" stroke-linejoin="round"/>
<path d="M174.69 293.4H180C180.987 293.4 181.933 293.792 182.63 294.489C183.328 295.187 183.72 296.133 183.72 297.12V309.74H171V297.13C170.997 296.147 171.384 295.203 172.075 294.504C172.767 293.805 173.707 293.408 174.69 293.4Z" fill="white" stroke="black" stroke-linejoin="round"/>
<path d="M187.38 293.4H192.64C193.626 293.4 194.572 293.792 195.27 294.489C195.968 295.187 196.36 296.133 196.36 297.12V309.74H183.66V297.13C183.658 296.641 183.754 296.156 183.94 295.703C184.126 295.251 184.4 294.84 184.746 294.493C185.091 294.147 185.502 293.872 185.954 293.684C186.406 293.496 186.89 293.4 187.38 293.4Z" fill="white" stroke="black" stroke-linejoin="round"/>
<path d="M200.08 293.4H205.34C206.326 293.4 207.272 293.792 207.97 294.489C208.668 295.187 209.06 296.133 209.06 297.12V309.74H196.35V297.13C196.348 296.64 196.444 296.154 196.631 295.701C196.818 295.248 197.093 294.836 197.439 294.489C197.786 294.143 198.198 293.868 198.651 293.681C199.104 293.494 199.589 293.399 200.08 293.4Z" fill="white" stroke="black" stroke-linejoin="round"/>
<path d="M299.37 294.87C297.93 299.48 294.37 302.49 291.48 301.58C288.59 300.67 287.34 296.19 288.77 291.58C290.2 286.97 293.77 283.96 296.66 284.87C299.55 285.78 300.8 290.26 299.37 294.87Z" fill="black" stroke="black" stroke-linejoin="round"/>
<path d="M289.74 315.47C288.95 318.01 287 319.67 285.38 319.17C283.76 318.67 283.1 316.17 283.89 313.65C284.68 311.13 286.63 309.45 288.25 309.95C289.87 310.45 290.53 312.92 289.74 315.47Z" fill="black" stroke="black" stroke-linejoin="round"/>
<path d="M232.05 219.19H268.04" stroke="black" stroke-linejoin="round"/>
<path d="M199.19 189.17C199.19 189.17 193.85 115.7 263.38 91.8398" stroke="black" stroke-linejoin="round"/>
<path d="M134.35 189.17C134.35 189.17 128.05 108 210 81.6399" stroke="black" stroke-linejoin="round"/>
<path d="M289.09 107.81C289.09 107.81 277.71 105.54 256.09 120.9C256.09 120.9 267.7 127.46 272.43 138.11L258.23 147.58" stroke="black" stroke-linejoin="round"/>
<path d="M228.21 83.3499C228.21 83.3499 199.76 92.9999 182.69 119.19" stroke="black" stroke-linejoin="round"/>
<path d="M277.56 110.11C277.56 110.11 294.67 117.39 305.35 143.03" stroke="black" stroke-linejoin="round"/>
<path d="M149.37 104.19C149.37 104.19 137.93 115.63 133.59 126.67C133.59 126.67 124.13 134.56 119.79 145.21L121.37 150.73" stroke="black" stroke-linejoin="round"/>
<path d="M187.29 249.56C187.827 248.363 188.431 247.198 189.1 246.07" stroke="black" stroke-linejoin="round"/>
<path d="M177.73 285.7C177.73 285.7 180.99 284.05 181.41 276.8C181.824 269.127 183.191 261.535 185.48 254.2" stroke="black" stroke-linejoin="round"/>
<path d="M218.51 369.75C219.44 370.46 220.4 371.15 221.38 371.81" stroke="black" stroke-linejoin="round"/>
<path d="M140.84 355.31L149.13 335.4H194.64C194.64 335.4 200.64 353.31 214.4 366.25" stroke="black" stroke-linejoin="round"/>
<path d="M264.15 148C264.15 147.062 263.872 146.145 263.35 145.366C262.829 144.586 262.088 143.978 261.222 143.62C260.355 143.261 259.401 143.168 258.482 143.352C257.562 143.536 256.717 143.988 256.055 144.652C255.392 145.316 254.942 146.161 254.76 147.081C254.578 148.002 254.673 148.955 255.034 149.821C255.394 150.687 256.003 151.426 256.784 151.946C257.565 152.466 258.482 152.742 259.42 152.74C260.042 152.74 260.658 152.617 261.232 152.379C261.807 152.141 262.329 151.791 262.768 151.351C263.207 150.911 263.556 150.388 263.793 149.813C264.03 149.238 264.151 148.622 264.15 148Z" fill="black" stroke="black" stroke-linejoin="round"/>
<path d="M311.4 147.21C311.271 146.279 310.868 145.408 310.243 144.707C309.618 144.006 308.799 143.506 307.889 143.271C306.98 143.037 306.021 143.078 305.135 143.389C304.248 143.7 303.474 144.268 302.911 145.019C302.348 145.771 302.021 146.673 301.971 147.611C301.922 148.55 302.152 149.481 302.633 150.288C303.114 151.095 303.824 151.741 304.673 152.143C305.521 152.546 306.471 152.688 307.4 152.55C308.637 152.369 309.752 151.706 310.502 150.705C311.251 149.705 311.574 148.448 311.4 147.21Z" fill="black" stroke="black" stroke-linejoin="round"/>
<path d="M188.18 118.9C188.29 116.54 186.01 115.1 183.1 115.69C180.19 116.28 177.72 118.69 177.61 121.03C177.5 123.37 179.78 124.84 182.7 124.25C185.62 123.66 188.07 121.27 188.18 118.9Z" fill="black" stroke="black" stroke-linejoin="round"/>
<path d="M123.34 151.52C123.34 148.91 122.28 146.79 120.97 146.79C119.66 146.79 118.6 148.91 118.6 151.52C118.6 154.13 119.66 156.26 120.97 156.26C122.28 156.26 123.34 154.14 123.34 151.52Z" fill="black" stroke="black" stroke-linejoin="round"/>
<path d="M240.77 191.29C240.768 190.667 240.581 190.059 240.234 189.543C239.887 189.026 239.394 188.624 238.818 188.387C238.242 188.15 237.609 188.089 236.999 188.212C236.389 188.334 235.828 188.635 235.389 189.076C234.949 189.517 234.65 190.078 234.53 190.689C234.409 191.3 234.472 191.933 234.71 192.508C234.949 193.083 235.353 193.574 235.871 193.92C236.389 194.265 236.997 194.45 237.62 194.45C238.034 194.45 238.445 194.368 238.827 194.209C239.21 194.05 239.558 193.817 239.851 193.524C240.143 193.23 240.375 192.882 240.533 192.498C240.691 192.115 240.771 191.704 240.77 191.29Z" fill="black" stroke="black" stroke-linejoin="round"/>
<path d="M118.7 191.37C118.7 189.55 117.7 188.07 116.45 188.07C115.2 188.07 114.2 189.55 114.2 191.37C114.2 193.19 115.2 194.68 116.45 194.68C117.7 194.68 118.7 193.2 118.7 191.37Z" fill="black" stroke="black" stroke-linejoin="round"/>
<path d="M113.86 199.22C113.86 197.35 113.12 195.84 112.21 195.84C111.3 195.84 110.57 197.35 110.57 199.22C110.57 201.09 111.31 202.61 112.21 202.61C113.11 202.61 113.86 201.09 113.86 199.22Z" fill="black" stroke="black" stroke-linejoin="round"/>
<path d="M111.34 207C111.34 205.52 110.71 204.32 109.94 204.32C109.17 204.32 108.54 205.52 108.54 207C108.54 208.48 109.17 209.68 109.94 209.68C110.71 209.68 111.34 208.47 111.34 207Z" fill="black" stroke="black" stroke-linejoin="round"/>
<path d="M246.72 199.7C246.72 199.077 246.535 198.468 246.189 197.95C245.843 197.432 245.351 197.028 244.775 196.79C244.2 196.551 243.566 196.489 242.955 196.61C242.344 196.732 241.783 197.032 241.343 197.472C240.902 197.913 240.602 198.474 240.48 199.085C240.359 199.696 240.421 200.33 240.66 200.905C240.898 201.481 241.302 201.973 241.82 202.319C242.338 202.665 242.947 202.85 243.57 202.85C244.405 202.85 245.207 202.518 245.797 201.927C246.388 201.336 246.72 200.535 246.72 199.7Z" fill="black" stroke="black" stroke-linejoin="round"/>
<path d="M249.17 209.15C249.17 208.528 248.985 207.92 248.64 207.402C248.295 206.884 247.804 206.481 247.23 206.242C246.655 206.003 246.023 205.939 245.412 206.059C244.802 206.179 244.241 206.477 243.799 206.916C243.358 207.354 243.056 207.914 242.933 208.523C242.809 209.133 242.868 209.766 243.104 210.342C243.339 210.918 243.74 211.411 244.255 211.759C244.77 212.108 245.377 212.296 246 212.3C246.415 212.303 246.827 212.223 247.211 212.066C247.596 211.909 247.945 211.677 248.24 211.384C248.535 211.092 248.768 210.744 248.928 210.36C249.087 209.977 249.17 209.565 249.17 209.15Z" fill="black" stroke="black" stroke-linejoin="round"/>
<path d="M338.52 182.71V222.95H349.17" stroke="black" stroke-width="3" stroke-linecap="round" stroke-linejoin="round"/>
<path d="M347.99 234.79H336.15V275.63" stroke="black" stroke-width="3" stroke-linecap="round" stroke-linejoin="round"/>
<path d="M345.03 228.87H318.39" stroke="black" stroke-width="3" stroke-linecap="round" stroke-linejoin="round"/>
<path d="M227.7 380.69C226.213 380.497 224.723 380.287 223.23 380.06C224.723 380.293 226.213 380.503 227.7 380.69Z" fill="white" stroke="black" stroke-linejoin="round"/>
<path d="M222.89 380L223.23 380.05" stroke="black" stroke-linejoin="round"/>
<path d="M236.88 381.59C235.32 381.48 233.74 381.35 232.14 381.19" stroke="black" stroke-linejoin="round"/>
<path d="M241.6 381.83C240.08 381.77 238.53 381.7 236.95 381.59" stroke="black" stroke-linejoin="round"/>
<path d="M232.13 381.19L231.62 381.14C230.32 381 229.01 380.86 227.7 380.69C229.18 380.88 230.66 381.05 232.13 381.19Z" fill="white" stroke="black" stroke-linejoin="round"/>
<path d="M311.75 89.27L311.96 89.35L312.42 89.5L311.75 89.27Z" fill="white" stroke="black" stroke-linejoin="round"/>
<path d="M332.33 98.71C332.33 98.71 331.62 98.25 330.33 97.52C329.5 97.05 328.42 96.46 327.11 95.79H327.02L325.73 95.14L325.57 95.06L324.19 94.4L323.94 94.28L322.47 93.6L322.17 93.46L320.57 92.75L320.26 92.62L318.51 91.88L317.74 91.57L316.31 91L315.4 90.65L314.08 90.15L314.73 90.39L314.38 90.25L313.17 89.82C312.78 89.67 312.37 89.53 311.96 89.39L310.65 88.93L309.32 88.49L309.96 88.7L309.23 88.45H309.18C308.1 88.09 306.97 87.74 305.81 87.4L304.81 87.11H304.75H304.86H304.73C303.92 86.87 303.09 86.64 302.25 86.42L301.09 86L298.3 85.32L297.3 85.08L297 85.02C296.11 85.09 250.74 88.73 228.2 119.15C205.44 149.88 215.12 199.95 214.55 214.15C213.98 228.35 212.27 244.87 208.86 251.7C205.45 258.53 202.6 257.96 204.3 262.51C206 267.06 213.42 287 213.42 287L208.3 300.08L213.42 310.32C213.42 310.32 208.87 317.15 212.28 322.84C214.081 326.053 216.617 328.794 219.68 330.84C219.68 330.84 222.52 347.34 218.54 357.58C215.16 366.26 219.96 376.15 222.89 380L223.23 380.05C226.05 380.49 228.85 380.84 231.62 381.13L232.14 381.18C233.75 381.34 235.35 381.47 236.93 381.58C238.51 381.68 240.06 381.76 241.59 381.82C251.04 382.14 259.42 381.46 265.18 379.77C274.86 376.92 341.43 343.35 351.1 333.11C358.1 325.66 362.46 292.93 364.29 275.64C361.675 276.641 358.9 277.156 356.1 277.16C338.21 277.16 323.71 256.16 323.71 230.31C323.71 204.46 338.21 183.47 356.1 183.47C367.31 183.47 377.19 191.71 383 204.23C383.794 198.294 384.161 192.309 384.1 186.32C383.54 149.35 352.81 111.23 332.33 98.71ZM297.1 229.09C289.73 235.77 279.71 243.37 272.22 243.37C264.73 243.37 254.71 235.77 247.34 229.09C245.956 227.838 244.851 226.309 244.094 224.603C243.337 222.897 242.946 221.051 242.946 219.185C242.946 217.319 243.337 215.473 244.094 213.767C244.851 212.061 245.956 210.532 247.34 209.28C254.71 202.6 264.73 195 272.22 195C279.71 195 289.73 202.6 297.1 209.28C298.484 210.532 299.59 212.061 300.347 213.767C301.104 215.473 301.495 217.319 301.495 219.185C301.495 221.051 301.104 222.897 300.347 224.603C299.59 226.309 298.484 227.838 297.1 229.09Z" fill="white" stroke="black" stroke-linejoin="round"/>
<path d="M290.14 363.6C291.29 363.92 292.46 364.22 293.67 364.49Z" fill="white"/>
<path d="M290.14 363.6C291.29 363.92 292.46 364.22 293.67 364.49" stroke="black" stroke-linejoin="round"/>
<path d="M240.44 310.71C240.44 310.71 246.19 348.53 285.26 362.09Z" fill="white"/>
<path d="M240.44 310.71C240.44 310.71 246.19 348.53 285.26 362.09" stroke="black" stroke-linejoin="round"/>
<path d="M316.93 91.19L316.36 90.98L317.04 91.24L316.93 91.19Z" fill="white" stroke="black" stroke-linejoin="round"/>
<path d="M313.24 89.8001L314.38 90.2101L313.85 90.0201L313.44 89.8701L312.44 89.5301L311.92 89.3401L312.44 89.5201H312.38L313.13 89.8001H313.24Z" fill="white" stroke="black" stroke-linejoin="round"/>
<path d="M316.28 91H316.33" stroke="black" stroke-linejoin="round"/>
<path d="M310 88.6599L309.26 88.4099" stroke="black" stroke-linejoin="round"/>
<path d="M315.62 90.69L315.38 90.6L316.78 91.14L316.18 90.91L315.73 90.73L314.84 90.39H314.73L315.4 90.65L315.62 90.69Z" fill="white"/>
<path d="M314.84 90.39L315.73 90.73L316.18 90.91L316.78 91.14L315.38 90.6L315.62 90.69L315.4 90.65L314.73 90.39H314.84ZM314.84 90.39L314.53 90.27" stroke="black" stroke-linejoin="round"/>
<path d="M310.65 88.8899L311.82 89.2899L311.38 89.1399L311 88.9999L310 88.6499L310.65 88.8899Z" fill="white" stroke="black" stroke-linejoin="round"/>
<path d="M215 261C209.8 258.1 204 259.84 204 259.84H203.85C203.762 260.791 203.92 261.748 204.31 262.62C206.02 267.17 213.42 287.09 213.42 287.09C213.42 287.09 229.42 282.42 231.76 277.8C234.1 273.18 220.2 263.87 215 261Z" fill="black" stroke="black" stroke-linejoin="round"/>
<path d="M208.3 300.12C208.3 300.12 215.57 296.83 225.4 301.46C230.778 303.883 235.82 306.993 240.4 310.71H213.4C213.4 310.71 209.12 308.62 208.3 300.12Z" fill="black" stroke="black" stroke-linejoin="round"/>
<path d="M213.42 310.71C213.42 310.71 209.21 312.45 210.94 319.39C212.67 326.33 219.68 330.85 219.68 330.85C219.68 330.85 238.68 329.22 240.44 310.71H213.42Z" fill="white" stroke="black" stroke-linejoin="round"/>
<path d="M345.16 114.84C348.41 115.22 350.68 115.84 351.48 116.39Z" fill="white"/>
<path d="M345.16 114.84C348.41 115.22 350.68 115.84 351.48 116.39" stroke="black" stroke-linejoin="round"/>
<path d="M273 192.79C272.87 180.06 274.52 154.79 287.82 136.06C301.12 117.33 326.46 113.83 340.9 114.5" stroke="black" stroke-linejoin="round"/>
<path d="M296.35 219.63H324.3" stroke="black" stroke-linejoin="round"/>
<path d="M352 215.29C346.26 215.29 341.61 222.02 341.61 230.29C341.61 238.56 346.26 245.29 352 245.29H378.42V215.29H352Z" fill="black" stroke="black" stroke-linejoin="round"/>
<path d="M378.46 245.36C384.204 245.36 388.86 238.626 388.86 230.32C388.86 222.014 384.204 215.28 378.46 215.28C372.716 215.28 368.06 222.014 368.06 230.32C368.06 238.626 372.716 245.36 378.46 245.36Z" fill="white" stroke="black" stroke-linejoin="round"/>
<path d="M386.47 199.42C374.67 199.42 365.1 213.25 365.1 230.32C365.1 247.39 374.67 261.23 386.47 261.23H413.13V199.42H386.47Z" fill="white" stroke="black" stroke-linejoin="round"/>
<path d="M413.13 261.23C424.932 261.23 434.5 247.391 434.5 230.32C434.5 213.249 424.932 199.41 413.13 199.41C401.327 199.41 391.76 213.249 391.76 230.32C391.76 247.391 401.327 261.23 413.13 261.23Z" fill="white" stroke="black" stroke-linejoin="round"/>
<path d="M416.83 277.17C434.718 277.17 449.22 256.195 449.22 230.32C449.22 204.445 434.718 183.47 416.83 183.47C398.941 183.47 384.44 204.445 384.44 230.32C384.44 256.195 398.941 277.17 416.83 277.17Z" fill="black" stroke="black" stroke-linejoin="round"/>
<path d="M424.35 277.17C442.238 277.17 456.74 256.195 456.74 230.32C456.74 204.445 442.238 183.47 424.35 183.47C406.461 183.47 391.96 204.445 391.96 230.32C391.96 256.195 406.461 277.17 424.35 277.17Z" fill="white" stroke="black" stroke-linejoin="round"/>
<path d="M424.35 249.65C431.734 249.65 437.72 240.996 437.72 230.32C437.72 219.644 431.734 210.99 424.35 210.99C416.966 210.99 410.98 219.644 410.98 230.32C410.98 240.996 416.966 249.65 424.35 249.65Z" fill="black" stroke="black" stroke-linejoin="round"/>
<path d="M427.67 249.65C435.054 249.65 441.04 240.996 441.04 230.32C441.04 219.644 435.054 210.99 427.67 210.99C420.286 210.99 414.3 219.644 414.3 230.32C414.3 240.996 420.286 249.65 427.67 249.65Z" fill="white" stroke="black" stroke-linejoin="round"/>
<path d="M434.49 213.19L424.35 249.66" stroke="black" stroke-linejoin="round"/>
<path d="M358.43 224.8H346.43" stroke="black" stroke-width="3" stroke-linecap="round" stroke-linejoin="round"/>
<path d="M364.14 217.41H352.14" stroke="black" stroke-width="3" stroke-linecap="round" stroke-linejoin="round"/>
<path d="M357.57 232.55H345.57" stroke="black" stroke-width="3" stroke-linecap="round" stroke-linejoin="round"/>
<path d="M362.15 240H350.15" stroke="black" stroke-width="3" stroke-linecap="round" stroke-linejoin="round"/>
<path d="M282.55 382.5C281 382.5 279.74 384.32 279.74 386.57C279.74 388.82 281 390.64 282.55 390.64H289.69V382.5H282.55Z" fill="white" stroke="black" stroke-linejoin="round"/>
<path d="M292.51 386.57C292.51 388.82 291.25 390.64 289.69 390.64C288.13 390.64 286.88 388.82 286.88 386.57C286.88 384.32 288.14 382.5 289.69 382.5C291.24 382.5 292.51 384.32 292.51 386.57Z" fill="white" stroke="black" stroke-linejoin="round"/>
<path d="M291.86 378.21C288.67 378.21 286.08 381.95 286.08 386.57C286.08 391.19 288.67 394.93 291.86 394.93H299.07V378.21H291.86Z" fill="white" stroke="black" stroke-linejoin="round"/>
<path d="M304.85 386.57C304.85 391.19 302.26 394.93 299.07 394.93C295.88 394.93 293.29 391.19 293.29 386.57C293.29 381.95 295.88 378.21 299.07 378.21C302.26 378.21 304.85 382 304.85 386.57Z" fill="white" stroke="black" stroke-linejoin="round"/>
<path d="M300.07 399.24C304.908 399.24 308.83 393.567 308.83 386.57C308.83 379.572 304.908 373.9 300.07 373.9C295.232 373.9 291.31 379.572 291.31 386.57C291.31 393.567 295.232 399.24 300.07 399.24Z" fill="white" stroke="black" stroke-linejoin="round"/>
<path d="M302.11 399.24C306.948 399.24 310.87 393.567 310.87 386.57C310.87 379.572 306.948 373.9 302.11 373.9C297.272 373.9 293.35 379.572 293.35 386.57C293.35 393.567 297.272 399.24 302.11 399.24Z" fill="white" stroke="black" stroke-linejoin="round"/>
<path d="M305.72 386.57C305.72 389.46 304.1 391.8 302.11 391.8C300.12 391.8 298.49 389.46 298.49 386.57C298.49 383.68 300.11 381.34 302.11 381.34C304.11 381.34 305.72 383.68 305.72 386.57Z" fill="white" stroke="black" stroke-linejoin="round"/>
<path d="M306.62 386.57C306.62 389.46 305 391.8 303.01 391.8C301.02 391.8 299.39 389.46 299.39 386.57C299.39 383.68 301.01 381.34 303.01 381.34C305.01 381.34 306.62 383.68 306.62 386.57Z" fill="white" stroke="black" stroke-linejoin="round"/>
<path d="M282.55 413.8C281 413.8 279.74 415.62 279.74 417.87C279.74 420.12 281 421.93 282.55 421.93H289.69V413.8H282.55Z" fill="white" stroke="black" stroke-linejoin="round"/>
<path d="M292.51 417.87C292.51 420.11 291.25 421.93 289.69 421.93C288.13 421.93 286.88 420.11 286.88 417.87C286.88 415.63 288.14 413.8 289.69 413.8C291.24 413.8 292.51 415.62 292.51 417.87Z" fill="white" stroke="black" stroke-linejoin="round"/>
<path d="M291.86 409.51C288.67 409.51 286.08 413.25 286.08 417.87C286.08 422.49 288.67 426.23 291.86 426.23H299.07V409.51H291.86Z" fill="white" stroke="black" stroke-linejoin="round"/>
<path d="M304.85 417.87C304.85 422.48 302.26 426.23 299.07 426.23C295.88 426.23 293.29 422.48 293.29 417.87C293.29 413.26 295.88 409.51 299.07 409.51C302.26 409.51 304.85 413.25 304.85 417.87Z" fill="white" stroke="black" stroke-linejoin="round"/>
<path d="M300.07 430.54C304.908 430.54 308.83 424.867 308.83 417.87C308.83 410.872 304.908 405.2 300.07 405.2C295.232 405.2 291.31 410.872 291.31 417.87C291.31 424.867 295.232 430.54 300.07 430.54Z" fill="white" stroke="black" stroke-linejoin="round"/>
<path d="M302.11 430.54C306.948 430.54 310.87 424.867 310.87 417.87C310.87 410.872 306.948 405.2 302.11 405.2C297.272 405.2 293.35 410.872 293.35 417.87C293.35 424.867 297.272 430.54 302.11 430.54Z" fill="white" stroke="black" stroke-linejoin="round"/>
<path d="M305.72 417.87C305.72 420.76 304.1 423.1 302.11 423.1C300.12 423.1 298.49 420.76 298.49 417.87C298.49 414.98 300.11 412.64 302.11 412.64C304.11 412.64 305.72 415 305.72 417.87Z" fill="white" stroke="black" stroke-linejoin="round"/>
<path d="M306.62 417.87C306.62 420.76 305 423.1 303.01 423.1C301.02 423.1 299.39 420.76 299.39 417.87C299.39 414.98 301.01 412.64 303.01 412.64C305.01 412.64 306.62 415 306.62 417.87Z" fill="white" stroke="black" stroke-linejoin="round"/>
<path d="M311.55 280.58C310.443 281.379 309.214 281.993 307.91 282.4" stroke="black" stroke-linejoin="round"/>
<path d="M298.94 282C296.412 280.932 294.287 279.091 292.869 276.741C291.451 274.392 290.813 271.654 291.047 268.919C291.28 266.185 292.373 263.594 294.168 261.519C295.964 259.444 298.37 257.99 301.043 257.366C303.715 256.741 306.517 256.979 309.046 258.044C311.575 259.11 313.702 260.948 315.123 263.296C316.543 265.644 317.184 268.382 316.954 271.116C316.723 273.851 315.633 276.443 313.84 278.52" stroke="black" stroke-linejoin="round"/>
<path d="M321.211 132.51C323.24 125.623 316.509 117.573 306.178 114.531C295.847 111.488 285.828 114.605 283.8 121.492C281.772 128.379 288.502 136.429 298.833 139.472C309.164 142.514 319.183 139.397 321.211 132.51Z" fill="white" stroke="black" stroke-linejoin="round"/>
<path d="M279 302C282.314 302 285 299.314 285 296C285 292.686 282.314 290 279 290C275.686 290 273 292.686 273 296C273 299.314 275.686 302 279 302Z" fill="white" stroke="black" stroke-linejoin="round"/>
<path d="M133.81 394.93C137.002 394.93 139.59 391.187 139.59 386.57C139.59 381.953 137.002 378.21 133.81 378.21C130.618 378.21 128.03 381.953 128.03 386.57C128.03 391.187 130.618 394.93 133.81 394.93Z" fill="white" stroke="black" stroke-linejoin="round"/>
<path d="M130.77 399.24C135.608 399.24 139.53 393.567 139.53 386.57C139.53 379.572 135.608 373.9 130.77 373.9C125.932 373.9 122.01 379.572 122.01 386.57C122.01 393.567 125.932 399.24 130.77 399.24Z" fill="white" stroke="black" stroke-linejoin="round"/>
<path d="M132.81 399.24C137.648 399.24 141.57 393.567 141.57 386.57C141.57 379.572 137.648 373.9 132.81 373.9C127.972 373.9 124.05 379.572 124.05 386.57C124.05 393.567 127.972 399.24 132.81 399.24Z" fill="white" stroke="black" stroke-linejoin="round"/>
<path d="M135 378.4C131.89 378.4 129.36 382.06 129.36 386.57C129.36 391.08 131.89 394.74 135 394.74H141.74V378.4H135Z" fill="white" stroke="black" stroke-linejoin="round"/>
<path d="M147.39 386.57C147.39 391.08 144.86 394.74 141.74 394.74C138.62 394.74 136.1 391.08 136.1 386.57C136.1 382.06 138.62 378.4 141.74 378.4C144.86 378.4 147.39 382.06 147.39 386.57Z" fill="white" stroke="black" stroke-linejoin="round"/>
<path d="M143.19 382.5C141.63 382.5 140.37 384.32 140.37 386.57C140.37 388.82 141.63 390.64 143.19 390.64H150.33V382.5H143.19Z" fill="white" stroke="black" stroke-linejoin="round"/>
<path d="M153.14 386.57C153.14 388.82 151.88 390.64 150.33 390.64C148.78 390.64 147.52 388.82 147.52 386.57C147.52 384.32 148.78 382.5 150.33 382.5C151.88 382.5 153.14 384.32 153.14 386.57Z" fill="white" stroke="black" stroke-linejoin="round"/>
<path d="M133.81 426.23C137.002 426.23 139.59 422.487 139.59 417.87C139.59 413.253 137.002 409.51 133.81 409.51C130.618 409.51 128.03 413.253 128.03 417.87C128.03 422.487 130.618 426.23 133.81 426.23Z" fill="white" stroke="black" stroke-linejoin="round"/>
<path d="M130.77 430.54C135.608 430.54 139.53 424.867 139.53 417.87C139.53 410.872 135.608 405.2 130.77 405.2C125.932 405.2 122.01 410.872 122.01 417.87C122.01 424.867 125.932 430.54 130.77 430.54Z" fill="white" stroke="black" stroke-linejoin="round"/>
<path d="M132.81 430.54C137.648 430.54 141.57 424.867 141.57 417.87C141.57 410.872 137.648 405.2 132.81 405.2C127.972 405.2 124.05 410.872 124.05 417.87C124.05 424.867 127.972 430.54 132.81 430.54Z" fill="white" stroke="black" stroke-linejoin="round"/>
<path d="M135 409.7C131.89 409.7 129.36 413.36 129.36 417.87C129.36 422.38 131.89 426 135 426H141.74V409.7H135Z" fill="white" stroke="black" stroke-linejoin="round"/>
<path d="M147.39 417.87C147.39 422.38 144.86 426.03 141.74 426.03C138.62 426.03 136.1 422.38 136.1 417.87C136.1 413.36 138.62 409.7 141.74 409.7C144.86 409.7 147.39 413.36 147.39 417.87Z" fill="white" stroke="black" stroke-linejoin="round"/>
<path d="M143.19 413.8C141.63 413.8 140.37 415.62 140.37 417.87C140.37 420.12 141.63 421.93 143.19 421.93H150.33V413.8H143.19Z" fill="white" stroke="black" stroke-linejoin="round"/>
<path d="M153.14 417.87C153.14 420.11 151.88 421.93 150.33 421.93C148.78 421.93 147.52 420.11 147.52 417.87C147.52 415.63 148.78 413.8 150.33 413.8C151.88 413.8 153.14 415.62 153.14 417.87Z" fill="white" stroke="black" stroke-linejoin="round"/>
<path d="M91.66 277.17C109.549 277.17 124.05 256.195 124.05 230.32C124.05 204.445 109.549 183.47 91.66 183.47C73.7715 183.47 59.27 204.445 59.27 230.32C59.27 256.195 73.7715 277.17 91.66 277.17Z" fill="black" stroke="black" stroke-linejoin="round"/>
<path d="M99.18 277.17C117.069 277.17 131.57 256.195 131.57 230.32C131.57 204.445 117.069 183.47 99.18 183.47C81.2915 183.47 66.79 204.445 66.79 230.32C66.79 256.195 81.2915 277.17 99.18 277.17Z" fill="white" stroke="black" stroke-linejoin="round"/>
<path d="M104.83 199.42C93.03 199.42 83.46 213.25 83.46 230.32C83.46 247.39 93.03 261.23 104.83 261.23H131.49V199.42H104.83Z" fill="white" stroke="black" stroke-linejoin="round"/>
<path d="M131.49 261.23C143.292 261.23 152.86 247.391 152.86 230.32C152.86 213.249 143.292 199.41 131.49 199.41C119.688 199.41 110.12 213.249 110.12 230.32C110.12 247.391 119.688 261.23 131.49 261.23Z" fill="white" stroke="black" stroke-linejoin="round"/>
<path d="M163.35 357.59C167.35 347.35 164.49 330.85 164.49 330.85C161.427 328.804 158.891 326.063 157.09 322.85C153.68 317.16 158.23 310.33 158.23 310.33L153.11 300.09L158.23 287C158.23 287 150.83 267.08 149.13 262.53C147.43 257.98 150.26 258.53 153.68 251.72C157.1 244.91 158.8 228.39 159.37 214.17C159.94 199.95 150.26 149.88 173.02 119.17C195.67 88.6 241.39 85.07 241.85 85.04L241.24 84.91C240.15 84.67 239.06 84.44 237.93 84.22H237.8C236.47 83.96 235.1 83.72 233.71 83.5C235.097 83.72 236.457 83.96 237.79 84.22C222.236 81.1774 206.25 81.0791 190.66 83.93C141.16 93.03 113.85 140.82 109.87 160.74C105.89 180.66 107.59 219.91 107.59 233C107.59 246.09 103.04 267.13 110.44 287.62C117.84 308.11 134.9 345.62 139.44 355.32C143.98 365.02 149.12 376.94 166.18 379.79L167.69 380.02C164.77 376.16 160 366.27 163.35 357.59Z" fill="white" stroke="black" stroke-linejoin="round"/>
<path d="M131.9 197.12C131.78 179.3 128.58 141.63 146.73 113.4C151.09 106.61 154.92 100.62 159.88 96.3201" stroke="black" stroke-linejoin="round"/>
<path d="M136.92 309.56C136.92 309.56 131.67 323.83 133 339.16Z" fill="white"/>
<path d="M136.92 309.56C136.92 309.56 131.67 323.83 133 339.16" stroke="black" stroke-linejoin="round"/>
<path d="M153.43 227.16C154.542 226.15 155.431 224.919 156.04 223.546C156.648 222.173 156.962 220.687 156.962 219.185C156.962 217.683 156.648 216.197 156.04 214.824C155.431 213.451 154.542 212.219 153.43 211.21C147.5 205.83 139.43 199.71 133.43 199.71C127.43 199.71 119.33 205.83 113.43 211.21C112.315 212.218 111.424 213.448 110.814 214.822C110.204 216.196 109.889 217.682 109.889 219.185C109.889 220.688 110.204 222.174 110.814 223.548C111.424 224.922 112.315 226.152 113.43 227.16C119.36 232.54 127.43 238.67 133.43 238.67C139.43 238.67 147.5 232.54 153.43 227.16Z" fill="black" stroke="black" stroke-linejoin="round"/>
<path d="M142.7 266.18C140.39 273.7 136.34 279.48 139.81 282.37C143.28 285.26 158.23 287 158.23 287C158.23 287 150.83 267.08 149.13 262.53C148.725 261.656 148.566 260.688 148.67 259.73C147.18 259.87 144.35 260.8 142.7 266.18Z" fill="black" stroke="black" stroke-linejoin="round"/>
<path d="M153.11 300.12C149.661 299.989 146.247 300.857 143.28 302.62C140.551 304.291 138.347 306.696 136.92 309.56H158.23L153.11 300.12Z" fill="black" stroke="black" stroke-linejoin="round"/>
<path d="M157.09 322.88C153.68 317.19 158.23 310.36 158.23 310.36L157.82 309.56H136.92C136.92 309.56 136.92 317.65 147.33 323.44C157.74 329.23 164.49 330.85 164.49 330.85C161.43 328.813 158.895 326.082 157.09 322.88Z" fill="white" stroke="black" stroke-linejoin="round"/>
<path d="M130.55 234.17C136.835 234.17 141.93 227.463 141.93 219.19C141.93 210.917 136.835 204.21 130.55 204.21C124.265 204.21 119.17 210.917 119.17 219.19C119.17 227.463 124.265 234.17 130.55 234.17Z" fill="#6B6B6B" stroke="black" stroke-linejoin="round"/>
<path d="M130.55 230.43C135.267 230.43 139.09 225.398 139.09 219.19C139.09 212.982 135.267 207.95 130.55 207.95C125.834 207.95 122.01 212.982 122.01 219.19C122.01 225.398 125.834 230.43 130.55 230.43Z" fill="black" stroke="black" stroke-linejoin="round"/>
<path d="M135.53 219.19C135.53 215.57 133.3 212.63 130.53 212.63C127.76 212.63 125.53 215.57 125.53 219.19C125.53 222.81 127.76 225.74 130.53 225.74C133.3 225.74 135.53 222.81 135.53 219.19Z" fill="black" stroke="black" stroke-linejoin="round"/>
<path d="M354.73 139.12L398.49 95.3701H441.38" stroke="black" stroke-linejoin="round"/>
<path d="M441.5 98.8101C443.571 98.8101 445.25 97.1311 445.25 95.0601C445.25 92.989 443.571 91.3101 441.5 91.3101C439.429 91.3101 437.75 92.989 437.75 95.0601C437.75 97.1311 439.429 98.8101 441.5 98.8101Z" fill="black" stroke="black" stroke-linejoin="round"/>
<path d="M440.21 105.13H465.84" stroke="black" stroke-linejoin="round"/>
<path d="M440.21 111.07H465.84" stroke="black" stroke-linejoin="round"/>
<path d="M440.21 117H465.84" stroke="black" stroke-linejoin="round"/>
<path d="M440.21 122.94H465.84" stroke="black" stroke-linejoin="round"/>
<path d="M102.53 284.1L94.7998 302.12H45.0498" stroke="black" stroke-linejoin="round"/>
<path d="M45.0498 305.87C47.1209 305.87 48.7998 304.191 48.7998 302.12C48.7998 300.049 47.1209 298.37 45.0498 298.37C42.9787 298.37 41.2998 300.049 41.2998 302.12C41.2998 304.191 42.9787 305.87 45.0498 305.87Z" fill="black" stroke="black" stroke-linejoin="round"/>
<path d="M33.21 313.13H58.84" stroke="black" stroke-linejoin="round"/>
<path d="M33.21 319.07H58.84" stroke="black" stroke-linejoin="round"/>
<path d="M33.21 325H58.84" stroke="black" stroke-linejoin="round"/>
<path d="M33.21 330.94H58.84" stroke="black" stroke-linejoin="round"/>
<path d="M149.71 428.22V460.82" stroke="black" stroke-linejoin="round"/>
<path d="M149.89 463.68C151.961 463.68 153.64 462.001 153.64 459.93C153.64 457.859 151.961 456.18 149.89 456.18C147.819 456.18 146.14 457.859 146.14 459.93C146.14 462.001 147.819 463.68 149.89 463.68Z" fill="black" stroke="black" stroke-linejoin="round"/>
<path d="M113.37 449.12H139" stroke="black" stroke-linejoin="round"/>
<path d="M113.37 455.06H139" stroke="black" stroke-linejoin="round"/>
<path d="M113.37 461H139" stroke="black" stroke-linejoin="round"/>
<path d="M113.37 466.94H139" stroke="black" stroke-linejoin="round"/>
<path d="M310.87 417.87H331.57V444.52H366.74" stroke="black" stroke-linejoin="round"/>
<path d="M367.61 448.22C369.681 448.22 371.36 446.541 371.36 444.47C371.36 442.399 369.681 440.72 367.61 440.72C365.539 440.72 363.86 442.399 363.86 444.47C363.86 446.541 365.539 448.22 367.61 448.22Z" fill="black" stroke="black" stroke-linejoin="round"/>
<path d="M377.37 435.12H403" stroke="black" stroke-linejoin="round"/>
<path d="M377.37 441.06H403" stroke="black" stroke-linejoin="round"/>
<path d="M377.37 447H403" stroke="black" stroke-linejoin="round"/>
<path d="M377.37 452.94H403" stroke="black" stroke-linejoin="round"/>
<path d="M392.21 390.06H448.05" stroke="#8F8F8F" stroke-miterlimit="10"/>
<path d="M420.17 390.06V362.33" stroke="#8F8F8F" stroke-miterlimit="10"/>
<path d="M396.1 399.565C401.335 397.412 403.835 391.423 401.682 386.187C399.529 380.952 393.54 378.452 388.304 380.605C383.069 382.758 380.569 388.747 382.722 393.983C384.875 399.218 390.864 401.718 396.1 399.565Z" fill="white" stroke="#8F8F8F" stroke-miterlimit="10"/>
<path d="M400.35 396.27L391.94 391.5V379.82C390.207 379.862 388.512 380.344 387.016 381.219C385.519 382.094 384.269 383.335 383.382 384.824C382.495 386.314 382.001 388.005 381.945 389.738C381.89 391.47 382.274 393.189 383.063 394.733C383.853 396.277 385.021 397.595 386.458 398.564C387.895 399.534 389.555 400.123 391.282 400.277C393.009 400.43 394.747 400.143 396.333 399.443C397.918 398.742 399.301 397.65 400.35 396.27Z" fill="black" stroke="#8F8F8F" stroke-miterlimit="10"/>
<path d="M398.22 390.06C398.22 391.247 397.868 392.407 397.209 393.393C396.549 394.38 395.612 395.149 394.516 395.603C393.419 396.057 392.213 396.176 391.049 395.945C389.885 395.713 388.816 395.142 387.977 394.303C387.138 393.464 386.567 392.394 386.335 391.231C386.104 390.067 386.222 388.86 386.676 387.764C387.131 386.668 387.9 385.731 388.886 385.071C389.873 384.412 391.033 384.06 392.22 384.06C393.811 384.06 395.337 384.692 396.462 385.817C397.588 386.943 398.22 388.469 398.22 390.06Z" fill="white" stroke="#8F8F8F" stroke-miterlimit="10"/>
<path d="M424.059 399.563C429.295 397.41 431.794 391.421 429.641 386.185C427.489 380.949 421.499 378.45 416.264 380.603C411.028 382.755 408.529 388.745 410.681 393.98C412.834 399.216 418.823 401.715 424.059 399.563Z" fill="white" stroke="#8F8F8F" stroke-miterlimit="10"/>
<path d="M428.31 396.27L419.89 391.5V379.82C418.157 379.864 416.464 380.347 414.969 381.223C413.473 382.099 412.224 383.341 411.339 384.831C410.453 386.321 409.96 388.011 409.905 389.744C409.851 391.476 410.236 393.194 411.026 394.737C411.816 396.28 412.984 397.597 414.421 398.566C415.859 399.535 417.518 400.124 419.245 400.277C420.971 400.43 422.709 400.143 424.294 399.442C425.879 398.741 427.261 397.65 428.31 396.27Z" fill="black" stroke="#8F8F8F" stroke-miterlimit="10"/>
<path d="M426.18 390.06C426.18 391.247 425.828 392.407 425.169 393.393C424.51 394.38 423.573 395.149 422.476 395.603C421.38 396.057 420.174 396.176 419.01 395.945C417.846 395.713 416.777 395.142 415.938 394.303C415.098 393.464 414.527 392.394 414.295 391.231C414.064 390.067 414.183 388.86 414.637 387.764C415.091 386.668 415.86 385.731 416.847 385.071C417.833 384.412 418.993 384.06 420.18 384.06C421.771 384.06 423.298 384.692 424.423 385.817C425.548 386.943 426.18 388.469 426.18 390.06Z" fill="white" stroke="#8F8F8F" stroke-miterlimit="10"/>
<path d="M458.118 392.187C459.309 386.653 455.787 381.201 450.253 380.011C444.719 378.82 439.267 382.342 438.076 387.876C436.886 393.41 440.407 398.862 445.942 400.052C451.476 401.243 456.928 397.721 458.118 392.187Z" fill="white" stroke="#8F8F8F" stroke-miterlimit="10"/>
<path d="M456.26 396.27L447.85 391.5V379.82C446.117 379.862 444.423 380.344 442.926 381.219C441.429 382.094 440.179 383.335 439.292 384.824C438.406 386.314 437.911 388.005 437.855 389.738C437.8 391.47 438.184 393.189 438.974 394.733C439.763 396.277 440.931 397.595 442.368 398.564C443.805 399.534 445.465 400.123 447.192 400.277C448.919 400.43 450.657 400.143 452.243 399.443C453.829 398.742 455.211 397.65 456.26 396.27Z" fill="black" stroke="#8F8F8F" stroke-miterlimit="10"/>
<path d="M454.13 390.06C454.13 391.247 453.778 392.407 453.119 393.393C452.459 394.38 451.522 395.149 450.426 395.603C449.33 396.057 448.123 396.176 446.959 395.945C445.795 395.713 444.726 395.142 443.887 394.303C443.048 393.464 442.477 392.394 442.245 391.231C442.014 390.067 442.132 388.86 442.587 387.764C443.041 386.668 443.81 385.731 444.796 385.071C445.783 384.412 446.943 384.06 448.13 384.06C449.721 384.06 451.247 384.692 452.373 385.817C453.498 386.943 454.13 388.469 454.13 390.06Z" fill="white" stroke="#8F8F8F" stroke-miterlimit="10"/>
<path d="M408.23 361.86H390.33V341.33L395.04 336.8H408.23V361.86Z" fill="white" stroke="#8F8F8F" stroke-linecap="round" stroke-linejoin="round"/>
<path d="M390.33 341.33H395.19V336.8L390.33 341.33Z" fill="white" stroke="#8F8F8F" stroke-linecap="round" stroke-linejoin="round"/>
<path d="M427.8 361.86H409.9V341.33L414.61 336.8H427.8V361.86Z" fill="white" stroke="#8F8F8F" stroke-linecap="round" stroke-linejoin="round"/>
<path d="M409.9 341.33H414.76V336.8L409.9 341.33Z" fill="white" stroke="#8F8F8F" stroke-linecap="round" stroke-linejoin="round"/>
<path d="M447.37 361.86H429.47V341.33L434.18 336.8H447.37V361.86Z" fill="white" stroke="#8F8F8F" stroke-linecap="round" stroke-linejoin="round"/>
<path d="M429.47 341.33H434.33V336.8L429.47 341.33Z" fill="white" stroke="#8F8F8F" stroke-linecap="round" stroke-linejoin="round"/>
<path d="M419.93 277.24V323.56" stroke="black" stroke-linejoin="round"/>
<path d="M423.39 323.23C423.39 322.488 423.17 321.763 422.758 321.147C422.346 320.53 421.76 320.049 421.075 319.765C420.39 319.482 419.636 319.407 418.909 319.552C418.181 319.697 417.513 320.054 416.988 320.578C416.464 321.103 416.107 321.771 415.962 322.498C415.818 323.226 415.892 323.98 416.176 324.665C416.459 325.35 416.94 325.936 417.557 326.348C418.173 326.76 418.898 326.98 419.64 326.98C420.635 326.98 421.589 326.585 422.292 325.882C422.995 325.178 423.39 324.225 423.39 323.23Z" fill="black" stroke="black" stroke-linejoin="round"/>
</svg>
